<?xml version="1.0" encoding="utf-8"?>
<!-- Generator: Adobe Illustrator 21.1.0, SVG Export Plug-In . SVG Version: 6.00 Build 0)  -->
<svg version="1.1" id="图层_1" xmlns="http://www.w3.org/2000/svg" xmlns:xlink="http://www.w3.org/1999/xlink" x="0px" y="0px"
	 viewBox="0 0 80 370" style="enable-background:new 0 0 80 370;" xml:space="preserve">
<style type="text/css">
	.st0{fill-rule:evenodd;clip-rule:evenodd;fill:#818593;}
	.st1{fill-rule:evenodd;clip-rule:evenodd;fill:#7DB72F;}
	.st2{fill-rule:evenodd;clip-rule:evenodd;fill:#7DB72E;}
</style>
<g id="用户">
	<g>
		<path class="st0" d="M31,358.3c0-0.1,0-0.1,0-0.2c0-3-4.1-6.4-10.2-7.7C22,349,23,347,23,344.9V339c0-4.6-3.2-8-7.5-8
			c-4.3,0-7.5,3.4-7.5,8v5.8c0,2.3,0.6,4.3,2,5.8c-5.2,1.3-9.8,4.3-9.8,7.5c0,0.1-0.1,0.1-0.1,0.2c0,0.5-0.2,1.6,1.1,2.3
			c2.8,1.5,8.2,2.3,14.3,2.3c6.2,0,11.5-0.9,14.3-2.3C31.1,360,31,358.8,31,358.3z M10,339c0-3.4,2.4-6,5.5-6c3.1,0,5.5,2.6,5.5,6
			v5.8c0,3.4-2.4,6-5.5,6c-3.1,0-5.5-2.6-5.5-6V339z M28.9,358.9c-2.5,1.3-7.7,2.1-13.4,2.1c-5.8,0-10.9-0.8-13.4-2.1
			c0,0-0.1,0-0.1,0c0-0.1,0-0.2,0-0.3c0-0.1,0-0.3,0-0.4c0-1.8,4-5,9.9-6c1,0.5,2,0.7,3.2,0.7c1.2,0,2.4-0.3,3.4-0.8
			c6.2,0.8,10.5,4.2,10.5,6c0,0.1,0,0.3,0,0.4c0,0.1,0,0.3,0,0.3C29,358.8,29,358.8,28.9,358.9z"/>
	</g>
</g>
<g id="图片">
	<g>
		<path class="st0" d="M18,126h5.6l-6.7,6.7l-5.1-4.1l-6.6,8.8l1.6,1.2l5.4-7.2l4.9,3.9l7.9-7.9v5.6h2v-9h-9V126z M28,115H4
			c-2.2,0-4,1.8-4,4v24c0,2.2,1.8,4,4,4h24c2.2,0,4-1.8,4-4v-24C32,116.8,30.2,115,28,115z M30,143c0,1.1-0.9,2-2,2H4
			c-1.1,0-2-0.9-2-2v-24c0-1.1,0.9-2,2-2h24c1.1,0,2,0.9,2,2V143z"/>
	</g>
</g>
<g id="钱包">
	<g>
		<path class="st0" d="M25,246c1.7,0,3-1.3,3-3c0-1.7-1.3-3-3-3s-3,1.3-3,3C22,244.7,23.3,246,25,246z M24,242h2v2h-2V242z M23,231
			v-8H4c-1.1,0-2.1,0.5-2.8,1.2l-0.1-0.6l-0.2,1C0.3,225.2,0,226.1,0,227v2c0,0.2,0,0.3,0,0.5c0,0.2,0,0.3,0,0.5v21c0,2.2,1.8,4,4,4
			h24c2.2,0,4-1.8,4-4v-20H23z M2,227c0-1.1,0.9-2,2-2h17v6H4c-0.1,0-0.3,0-0.4,0c0,0-0.1,0-0.1,0c-0.1,0-0.2,0-0.2-0.1
			c-0.1,0-0.1,0-0.1-0.1c-0.1,0-0.1-0.1-0.2-0.1c-0.1,0-0.1-0.1-0.2-0.1c0,0-0.1-0.1-0.1-0.1c-0.1,0-0.1-0.1-0.2-0.2
			c0,0,0-0.1-0.1-0.1c-0.1-0.1-0.1-0.1-0.2-0.2c0,0,0,0,0,0c-0.1-0.2-0.2-0.4-0.2-0.6l0,0c0-0.1,0-0.2,0-0.3V227z M30,247h-8
			c-1.1,0-2-0.9-2-2v-4c0-1.1,0.9-2,2-2h8V247z M30,237h-8c-2.2,0-4,1.8-4,4v4c0,2.2,1.8,4,4,4h8v2c0,1.1-0.9,2-2,2H4
			c-1.1,0-2-0.9-2-2v-18.5c0.1,0.1,0.3,0.2,0.4,0.2c0,0,0,0,0,0c0.2,0.1,0.4,0.2,0.7,0.2c0.1,0,0.1,0,0.2,0c0.2,0,0.5,0.1,0.7,0.1
			h26V237z"/>
	</g>
</g>
<g id="饼图">
	<g>
		<path class="st0" d="M31.8,183H17v-14h-1c-8.8,0-16,7.2-16,16c0,8.8,7.2,16,16,16c8.8,0,16-7.2,16-16c0-0.3,0-0.6,0-0.9L31.8,183z
			 M15,171v11.5L7.4,174C9.5,172.3,12,171.2,15,171z M16,199c-7.7,0-14-6.3-14-14c0-3.7,1.5-7.1,3.9-9.6L15,185h15
			C30,192.7,23.7,199,16,199z M31.9,179.9c-0.4-6.4-6.6-10.9-12-10.9h-1v12h13L31.9,179.9z M21,179v-7.9c4,0.5,8,3.6,8.8,7.9H21z"/>
	</g>
</g>
<g id="评论2">
	<g>
		<path class="st0" d="M21.6,279H10.4C4.7,279,0,283.6,0,289.2v1.9c0,5.9,4.8,10.8,10.4,10.8h3l9.1,5c0.1,0.1,0.3,0.1,0.5,0.1
			c0.2,0,0.4,0,0.5-0.1c0.3-0.2,0.5-0.5,0.5-0.9v-5c4.8-1.2,8-5.1,8-10v-1.9C32,283.6,27.3,279,21.6,279z M30,291.1
			c0,4.2-2.8,7.4-7.2,8.2c-0.5,0.1-0.8,0.5-0.8,1v4.1l-7.9-4.3c-0.1-0.1-0.3-0.1-0.5-0.1h-3.3c-4.5,0-8.4-4.1-8.4-8.8v-1.9
			c0-4.5,3.8-8.2,8.4-8.2h11.3c4.6,0,8.4,3.7,8.4,8.2V291.1z"/>
	</g>
</g>
<g id="手机">
	<g>
		<path class="st0" d="M24,61H8c-2.2,0-4,1.8-4,4v24c0,2.2,1.8,4,4,4h16c2.2,0,4-1.8,4-4V65C28,62.8,26.2,61,24,61z M26,89
			c0,1.1-0.9,2-2,2H8c-1.1,0-2-0.9-2-2V65c0-1.1,0.9-2,2-2h16c1.1,0,2,0.9,2,2V89z M23,64H9c-1.1,0-2,0.9-2,2v15c0,1.1,0.9,2,2,2h14
			c1.1,0,2-0.9,2-2V66C25,64.9,24.1,64,23,64z M23,81H9V66h14V81z M16,84c-1.7,0-3,1.3-3,3c0,1.7,1.3,3,3,3s3-1.3,3-3
			C19,85.3,17.7,84,16,84z M17,88h-2v-2h2V88z"/>
	</g>
</g>
<g id="房子">
	<g>
		<path class="st0" d="M31,20.8L18.8,8.2C18.1,7.4,17.1,7,16,7c-1.1,0-2.1,0.4-2.8,1.2L1,20.8c-1.3,1.3-1.1,2.4-0.9,2.9
			C0.3,24.1,0.8,25,2.2,25H4v9.7C4,36.9,5.6,39,7.8,39H13V28.7c0-1.1-0.2-1.7,1-1.7H18c1.1,0,1,0.6,1,1.7V39h5.2
			c2.3,0,3.8-2.1,3.8-4.3V25h1.8c1.4,0,1.9-0.9,2.1-1.3C32.1,23.3,32.2,22.2,31,20.8z M29.8,23H26v11.7c0,1.1-0.7,2.3-1.8,2.3H21
			v-8.3c0-2.2-0.7-3.7-3-3.7h-4.1c-2.3,0-3,1.5-3,3.7V37H7.8C6.7,37,6,35.8,6,34.7V23H2.2c0,0-0.1-0.1-0.1-0.1
			c0.1-0.1,0.2-0.4,0.4-0.6L14.6,9.6C15,9.2,15.5,9,16,9c0.5,0,1,0.2,1.3,0.6l12.1,12.6c0.2,0.2,0.3,0.5,0.4,0.6
			C29.8,22.9,29.8,23,29.8,23z"/>
	</g>
</g>
<g id="用户_拷贝">
	<g>
		<path class="st1" d="M79,358.3c0-0.1,0-0.1,0-0.2c0-3-4.1-6.4-10.2-7.7C70,349,71,347,71,344.9V339c0-4.6-3.2-8-7.5-8
			c-4.3,0-7.5,3.4-7.5,8v5.8c0,2.3,0.6,4.3,2,5.8c-5.2,1.3-9.8,4.3-9.8,7.5c0,0.1-0.1,0.1-0.1,0.2c0,0.5-0.2,1.6,1.1,2.3
			c2.8,1.5,8.2,2.3,14.3,2.3c6.2,0,11.5-0.9,14.3-2.3C79.1,360,79,358.8,79,358.3z"/>
	</g>
</g>
<g id="图片_拷贝_3">
	<g>
		<path class="st1" d="M76,115H52c-2.2,0-4,1.8-4,4v24c0,2.2,1.8,4,4,4h24c2.2,0,4-1.8,4-4v-24C80,116.8,78.2,115,76,115z M75,133
			h-2v-5.6l-7.9,7.9l-4.9-3.9l-5.4,7.2l-1.6-1.2l6.6-8.8l5.1,4.1l6.7-6.7H66v-2h9V133z"/>
	</g>
</g>
<g id="评论2_拷贝">
	<g>
		<path class="st2" d="M69.6,279H58.4c-5.7,0-10.4,4.6-10.4,10.2v1.9c0,5.9,4.8,10.8,10.4,10.8h3l9.1,5c0.1,0.1,0.3,0.1,0.5,0.1
			c0.2,0,0.4,0,0.5-0.1c0.3-0.2,0.5-0.5,0.5-0.9v-5c4.8-1.2,8-5.1,8-10v-1.9C80,283.6,75.3,279,69.6,279z"/>
	</g>
</g>
<g id="饼图_拷贝">
	<g>
		<path class="st1" d="M79.8,183H65v-14h-1c-8.8,0-16,7.2-16,16c0,8.8,7.2,16,16,16c8.8,0,16-7.2,16-16c0-0.3,0-0.6,0-0.9L79.8,183z
			 M79.9,179.9c-0.4-6.4-6.6-10.9-12-10.9h-1v12h13L79.9,179.9z"/>
	</g>
</g>
<g id="钱包_拷贝">
	<g>
		<path class="st1" d="M73,246c1.7,0,3-1.3,3-3s-1.3-3-3-3s-3,1.3-3,3S71.3,246,73,246z M72,242h2v2h-2V242z M71,231v-8H52
			c-1.1,0-2.1,0.5-2.8,1.2l-0.1-0.6l-0.2,1c-0.5,0.7-0.9,1.5-0.9,2.5v2c0,0.2,0,0.3,0,0.5c0,0.2,0,0.3,0,0.5v21c0,2.2,1.8,4,4,4h24
			c2.2,0,4-1.8,4-4v-20H71z M51.6,231c0,0-0.1,0-0.1,0c-0.1,0-0.2,0-0.2-0.1c-0.1,0-0.1,0-0.1-0.1c-0.1,0-0.1-0.1-0.2-0.1
			c-0.1,0-0.1-0.1-0.2-0.1c0,0-0.1-0.1-0.1-0.1c-0.1,0-0.1-0.1-0.2-0.2c0,0,0-0.1-0.1-0.1c-0.1-0.1-0.1-0.1-0.2-0.2c0,0,0,0,0,0
			c-0.1-0.2-0.2-0.4-0.2-0.6l0,0c0-0.1,0-0.2,0-0.3v-2c0-1.1,0.9-2,2-2h17v6H52C51.9,231,51.7,231,51.6,231z M78,247h-8
			c-1.1,0-2-0.9-2-2v-4c0-1.1,0.9-2,2-2h8V247z"/>
	</g>
</g>
<g id="房子_拷贝">
	<g>
		<path class="st2" d="M79,20.8L66.8,8.2C66.1,7.4,65.1,7,64,7c-1.1,0-2.1,0.4-2.8,1.2L49,20.8c-1.3,1.3-1.1,2.4-0.9,2.9
			c0.1,0.3,0.6,1.3,2.1,1.3H52v9.7c0,2.2,1.6,4.3,3.8,4.3H61V28.7c0-1.1-0.2-1.7,1-1.7H66c1.1,0,1,0.6,1,1.7V39h5.2
			c2.3,0,3.8-2.1,3.8-4.3V25h1.8c1.4,0,1.9-0.9,2.1-1.3C80.1,23.3,80.2,22.2,79,20.8z"/>
	</g>
</g>
<g id="手机_拷贝">
	<g>
		<path class="st1" d="M57,81h14V66H57V81z M72,61H56c-2.2,0-4,1.8-4,4v24c0,2.2,1.8,4,4,4h16c2.2,0,4-1.8,4-4V65
			C76,62.8,74.2,61,72,61z M64,90c-1.7,0-3-1.3-3-3c0-1.7,1.3-3,3-3s3,1.3,3,3C67,88.7,65.7,90,64,90z M73,81c0,1.1-0.9,2-2,2H57
			c-1.1,0-2-0.9-2-2V66c0-1.1,0.9-2,2-2h14c1.1,0,2,0.9,2,2V81z M63,88h2v-2h-2V88z"/>
	</g>
</g>
</svg>
